<svg width="28" height="28" viewBox="0 0 28 28" fill="none" xmlns="http://www.w3.org/2000/svg">
<path fill-rule="evenodd" clip-rule="evenodd" d="M4.20001 7C4.20001 6.6287 4.34751 6.2726 4.61006 6.01005C4.87261 5.7475 5.22871 5.6 5.60001 5.6H22.4C22.7713 5.6 23.1274 5.7475 23.39 6.01005C23.6525 6.2726 23.8 6.6287 23.8 7C23.8 7.3713 23.6525 7.7274 23.39 7.98995C23.1274 8.2525 22.7713 8.4 22.4 8.4H5.60001C5.22871 8.4 4.87261 8.2525 4.61006 7.98995C4.34751 7.7274 4.20001 7.3713 4.20001 7ZM4.20001 14C4.20001 13.6287 4.34751 13.2726 4.61006 13.01C4.87261 12.7475 5.22871 12.6 5.60001 12.6H14C14.3713 12.6 14.7274 12.7475 14.99 13.01C15.2525 13.2726 15.4 13.6287 15.4 14C15.4 14.3713 15.2525 14.7274 14.99 14.9899C14.7274 15.2525 14.3713 15.4 14 15.4H5.60001C5.22871 15.4 4.87261 15.2525 4.61006 14.9899C4.34751 14.7274 4.20001 14.3713 4.20001 14ZM4.20001 21C4.20001 20.6287 4.34751 20.2726 4.61006 20.01C4.87261 19.7475 5.22871 19.6 5.60001 19.6H22.4C22.7713 19.6 23.1274 19.7475 23.39 20.01C23.6525 20.2726 23.8 20.6287 23.8 21C23.8 21.3713 23.6525 21.7274 23.39 21.9899C23.1274 22.2525 22.7713 22.4 22.4 22.4H5.60001C5.22871 22.4 4.87261 22.2525 4.61006 21.9899C4.34751 21.7274 4.20001 21.3713 4.20001 21Z" fill="#111827"/>
</svg>
